<svg width="22" height="22" viewBox="0 0 22 22" fill="none" xmlns="http://www.w3.org/2000/svg">
    <path d="M2.17004 6.43994L11 11.5499L19.77 6.46994M11 20.6099V11.5399" stroke="black" stroke-width="1.5" stroke-linecap="round" stroke-linejoin="round"/>
    <path d="M8.93001 1.48L3.59001 4.45C2.38001 5.12 1.39001 6.8 1.39001 8.18V13.83C1.39001 15.21 2.38001 16.89 3.59001 17.56L8.93001 20.53C10.07 21.16 11.94 21.16 13.08 20.53L18.42 17.56C19.63 16.89 20.62 15.21 20.62 13.83V8.18C20.62 6.8 19.63 5.12 18.42 4.45L13.08 1.48C11.93 0.84 10.07 0.84 8.93001 1.48Z" stroke="black" stroke-width="1.5" stroke-linecap="round" stroke-linejoin="round"/>
    <path d="M16 12.2401V8.5801L6.51001 3.1001" stroke="black" stroke-width="1.5" stroke-linecap="round" stroke-linejoin="round"/>
</svg>
