<svg width="52" height="52" viewBox="0 0 52 52" fill="none" xmlns="http://www.w3.org/2000/svg">
<path d="M8.5 21H13.5C18.5 21 21 18.5 21 13.5V8.5C21 3.5 18.5 1 13.5 1H8.5C3.5 1 1 3.5 1 8.5V13.5C1 18.5 3.5 21 8.5 21ZM38.5 21H43.5C48.5 21 51 18.5 51 13.5V8.5C51 3.5 48.5 1 43.5 1H38.5C33.5 1 31 3.5 31 8.5V13.5C31 18.5 33.5 21 38.5 21ZM38.5 51H43.5C48.5 51 51 48.5 51 43.5V38.5C51 33.5 48.5 31 43.5 31H38.5C33.5 31 31 33.5 31 38.5V43.5C31 48.5 33.5 51 38.5 51ZM8.5 51H13.5C18.5 51 21 48.5 21 43.5V38.5C21 33.5 18.5 31 13.5 31H8.5C3.5 31 1 33.5 1 38.5V43.5C1 48.5 3.5 51 8.5 51Z" stroke="black" stroke-width="1.5" stroke-miterlimit="10" stroke-linecap="round" stroke-linejoin="round"/>
</svg>
