<svg width="28" height="27" viewBox="0 0 28 27" fill="none" xmlns="http://www.w3.org/2000/svg">
<path d="M1.50708 1H3.72454C5.10089 1 6.18413 2.1625 6.06943 3.5L5.01168 15.95C4.97038 16.4323 5.03167 16.9178 5.19167 17.3757C5.35167 17.8336 5.60688 18.2539 5.94115 18.6099C6.27541 18.966 6.68144 19.2501 7.13349 19.4442C7.58555 19.6383 8.07378 19.7382 8.56725 19.7375H22.1396C23.9747 19.7375 25.5805 18.2625 25.7207 16.475L26.4089 7.1C26.5618 5.025 24.956 3.3375 22.8278 3.3375H6.37529M10.4279 8.5H25.7207M19.6673 26C20.0898 26 20.495 25.8354 20.7937 25.5424C21.0924 25.2493 21.2603 24.8519 21.2603 24.4375C21.2603 24.0231 21.0924 23.6257 20.7937 23.3326C20.495 23.0396 20.0898 22.875 19.6673 22.875C19.2448 22.875 18.8396 23.0396 18.5409 23.3326C18.2421 23.6257 18.0743 24.0231 18.0743 24.4375C18.0743 24.8519 18.2421 25.2493 18.5409 25.5424C18.8396 25.8354 19.2448 26 19.6673 26ZM9.47208 26C9.89457 26 10.2998 25.8354 10.5985 25.5424C10.8972 25.2493 11.0651 24.8519 11.0651 24.4375C11.0651 24.0231 10.8972 23.6257 10.5985 23.3326C10.2998 23.0396 9.89457 22.875 9.47208 22.875C9.04959 22.875 8.6444 23.0396 8.34566 23.3326C8.04691 23.6257 7.87908 24.0231 7.87908 24.4375C7.87908 24.8519 8.04691 25.2493 8.34566 25.5424C8.6444 25.8354 9.04959 26 9.47208 26V26Z" stroke="#EEEEEE" stroke-width="2" stroke-miterlimit="10" stroke-linecap="round" stroke-linejoin="round"/>
</svg>
