<svg width="20" height="20" viewBox="0 0 136 136" fill="none" xmlns="http://www.w3.org/2000/svg">
    <path d="M93.2119 67.5894L131.642 29.1594C136.358 24.4435 136.358 16.7975 131.642 12.0778L123.101 3.53692C118.385 -1.17897 110.739 -1.17897 106.019 3.53692L67.5894 41.9669L29.1594 3.53692C24.4435 -1.17897 16.7975 -1.17897 12.0778 3.53692L3.53692 12.0778C-1.17897 16.7937 -1.17897 24.4397 3.53692 29.1594L41.9669 67.5894L3.53692 106.019C-1.17897 110.735 -1.17897 118.381 3.53692 123.101L12.0778 131.642C16.7937 136.358 24.4435 136.358 29.1594 131.642L67.5894 93.2119L106.019 131.642C110.735 136.358 118.385 136.358 123.101 131.642L131.642 123.101C136.358 118.385 136.358 110.739 131.642 106.019L93.2119 67.5894Z" fill="#505050"/>
</svg>
