<svg width="22" height="22" viewBox="0 0 22 22" fill="none" xmlns="http://www.w3.org/2000/svg">
<path d="M17 11C17 10.4696 17.2107 9.96086 17.5858 9.58579C17.9609 9.21071 18.4696 9 19 9C19.5304 9 20.0391 9.21071 20.4142 9.58579C20.7893 9.96086 21 10.4696 21 11C21 11.5304 20.7893 12.0391 20.4142 12.4142C20.0391 12.7893 19.5304 13 19 13C18.4696 13 17.9609 12.7893 17.5858 12.4142C17.2107 12.0391 17 11.5304 17 11ZM17 11H5M5 11C5 11.5304 4.78929 12.0391 4.41421 12.4142C4.03914 12.7893 3.53043 13 3 13C2.46957 13 1.96086 12.7893 1.58579 12.4142C1.21071 12.0391 1 11.5304 1 11C1 10.4696 1.21071 9.96086 1.58579 9.58579C1.96086 9.21071 2.46957 9 3 9C3.53043 9 4.03914 9.21071 4.41421 9.58579C4.78929 9.96086 5 10.4696 5 11ZM19 5C19.5304 5 20.0391 4.78929 20.4142 4.41421C20.7893 4.03914 21 3.53043 21 3C21 2.46957 20.7893 1.96086 20.4142 1.58579C20.0391 1.21071 19.5304 1 19 1C18.4696 1 17.9609 1.21071 17.5858 1.58579C17.2107 1.96086 17 2.46957 17 3C17 3.53043 17.2107 4.03914 17.5858 4.41421C17.9609 4.78929 18.4696 5 19 5ZM19 21C19.5304 21 20.0391 20.7893 20.4142 20.4142C20.7893 20.0391 21 19.5304 21 19C21 18.4696 20.7893 17.9609 20.4142 17.5858C20.0391 17.2107 19.5304 17 19 17C18.4696 17 17.9609 17.2107 17.5858 17.5858C17.2107 17.9609 17 18.4696 17 19C17 19.5304 17.2107 20.0391 17.5858 20.4142C17.9609 20.7893 18.4696 21 19 21Z" stroke="black" stroke-width="1.5" stroke-linecap="round" stroke-linejoin="round"/>
<path d="M17 3H13C11 3 10 4 10 6V16C10 18 11 19 13 19H17" stroke="black" stroke-width="1.5" stroke-linecap="round" stroke-linejoin="round"/>
</svg>
