<svg width="22" height="22" viewBox="0 0 22 22" fill="none" xmlns="http://www.w3.org/2000/svg">
<path d="M20.68 15.96L17.55 8.65C16.49 6.17 14.54 6.07 13.23 8.43L11.34 11.84C10.38 13.57 8.59005 13.72 7.35005 12.17L7.13005 11.89C5.84005 10.27 4.02005 10.47 3.09005 12.32L1.37005 15.77C0.160048 18.17 1.91005 21 4.59005 21H17.35C19.95 21 21.7 18.35 20.68 15.96ZM5.97005 7C6.7657 7 7.52876 6.68393 8.09137 6.12132C8.65398 5.55871 8.97005 4.79565 8.97005 4C8.97005 3.20435 8.65398 2.44129 8.09137 1.87868C7.52876 1.31607 6.7657 1 5.97005 1C5.1744 1 4.41134 1.31607 3.84873 1.87868C3.28612 2.44129 2.97005 3.20435 2.97005 4C2.97005 4.79565 3.28612 5.55871 3.84873 6.12132C4.41134 6.68393 5.1744 7 5.97005 7Z" stroke="black" stroke-width="1.5" stroke-linecap="round" stroke-linejoin="round"/>
</svg>
