<svg width="103" height="102" viewBox="0 0 103 102" fill="none" xmlns="http://www.w3.org/2000/svg">
<path d="M101.41 101C101.41 81.65 79.0001 66 51.4099 66C23.8197 66 1.40991 81.65 1.40991 101M51.4099 51C59.1287 51 66.5313 48.3661 71.9893 43.6777C77.4473 38.9893 80.5135 32.6304 80.5135 26C80.5135 19.3696 77.4473 13.0107 71.9893 8.32233C66.5313 3.63392 59.1287 1 51.4099 1C43.6912 1 36.2885 3.63392 30.8306 8.32233C25.3726 13.0107 22.3063 19.3696 22.3063 26C22.3063 32.6304 25.3726 38.9893 30.8306 43.6777C36.2885 48.3661 43.6912 51 51.4099 51V51Z" stroke="black" stroke-width="1.5" stroke-linecap="round" stroke-linejoin="round"/>
</svg>
