<svg width="17" height="17" viewBox="0 0 17 17" fill="none" xmlns="http://www.w3.org/2000/svg">
<path d="M9.54996 2.08806L2.70829 8.6584C2.44996 8.90791 2.19996 9.39936 2.14996 9.7396L1.84162 12.1893C1.73329 13.0739 2.43329 13.6788 3.39996 13.5276L6.08329 13.1117C6.45829 13.0512 6.98329 12.8017 7.24162 12.5447L14.0833 5.97432C15.2666 4.8402 15.8 3.5473 13.9583 1.96709C12.125 0.402004 10.7333 0.953942 9.54996 2.08806V2.08806Z" stroke="#606060" stroke-width="1.5" stroke-miterlimit="10" stroke-linecap="round" stroke-linejoin="round"/>
<path d="M8.40833 3.18457C8.58304 4.19836 9.12384 5.13082 9.94584 5.83557C10.7679 6.54033 11.8245 6.97747 12.95 7.07838M1 16.0001H16" stroke="#606060" stroke-width="1.5" stroke-miterlimit="10" stroke-linecap="round" stroke-linejoin="round"/>
</svg>
