<svg width="62" height="62" viewBox="0 0 62 62" fill="none" xmlns="http://www.w3.org/2000/svg">
<path d="M3.43359 17.3286L30.9843 32.6634L58.3478 17.4186M30.9843 59.8519V32.6334" stroke="black" stroke-width="1.5" stroke-linecap="round" stroke-linejoin="round"/>
<path d="M24.5257 2.44422L7.86427 11.327C4.08892 13.3376 1 18.3792 1 22.5205V39.4758C1 43.6171 4.08892 48.6586 7.86427 50.6693L24.5257 59.5821C28.0827 61.4726 33.9173 61.4726 37.4743 59.5821L54.1357 50.6693C57.9111 48.6586 61 43.6171 61 39.4758V22.5205C61 18.3792 57.9111 13.3376 54.1357 11.327L37.4743 2.41421C33.8861 0.523623 28.0827 0.523623 24.5257 2.44422V2.44422Z" stroke="black" stroke-width="1.5" stroke-linecap="round" stroke-linejoin="round"/>
</svg>
