<svg width="22" height="22" viewBox="0 0 22 22" fill="none" xmlns="http://www.w3.org/2000/svg">
<path d="M6.08719 19.6C7.5819 20.5 9.37555 21 11.1692 21C16.6498 21 21.1339 16.5 21.1339 11C21.1339 5.5 16.6498 1 11.1692 1C5.6886 1 1.20447 5.5 1.20447 11C1.20447 12.8 1.7027 14.5 2.49988 16L1.64292 19.306C1.5987 19.4767 1.60025 19.656 1.6474 19.8259C1.69455 19.9958 1.78562 20.1501 1.91138 20.2733C2.03714 20.3965 2.19312 20.4841 2.3635 20.5272C2.53388 20.5704 2.7126 20.5675 2.88153 20.519L6.08719 19.6Z" stroke="#242424" stroke-width="1.5" stroke-miterlimit="10" stroke-linecap="round" stroke-linejoin="round"/>
<path d="M15.6533 13.848C15.6533 14.01 15.6175 14.177 15.5407 14.339C15.4624 14.5064 15.3597 14.6611 15.2358 14.798C15.0156 15.041 14.7734 15.216 14.4984 15.329C14.2294 15.442 13.9374 15.5 13.6235 15.5C13.1651 15.5 12.6759 15.392 12.1587 15.172C11.6119 14.9341 11.0938 14.6349 10.6142 14.28C10.0925 13.8976 9.60018 13.4764 9.14137 13.02C8.68743 12.5621 8.26871 12.0704 7.8888 11.549C7.53966 11.0719 7.24423 10.5574 7.00792 10.015C6.79268 9.5 6.68506 9.01 6.68506 8.543C6.68506 8.237 6.73887 7.945 6.84649 7.675C6.95411 7.4 7.1255 7.148 7.36366 6.923C7.65064 6.639 7.96453 6.5 8.29735 6.5C8.42291 6.5 8.54846 6.527 8.66107 6.581C8.77765 6.635 8.88029 6.716 8.962 6.833L10.0043 8.305C10.084 8.417 10.1438 8.521 10.1837 8.62C10.2235 8.714 10.2465 8.809 10.2465 8.894C10.2452 9.00742 10.2124 9.11824 10.1518 9.214C10.0826 9.33107 9.99815 9.43835 9.90068 9.533L9.55889 9.889C9.53511 9.91235 9.51645 9.94041 9.5041 9.97141C9.49175 10.0024 9.48597 10.0356 9.48714 10.069C9.48714 10.104 9.49213 10.136 9.50109 10.172C9.51405 10.208 9.528 10.235 9.53697 10.262C9.61669 10.411 9.75619 10.604 9.95449 10.838C10.1568 11.072 10.372 11.311 10.6052 11.549C10.8483 11.788 11.0815 12.008 11.3197 12.211C11.5528 12.408 11.7462 12.543 11.8986 12.624L11.9803 12.661C12.0161 12.6738 12.0539 12.6799 12.0919 12.679C12.1263 12.6797 12.1605 12.6733 12.1922 12.66C12.2239 12.6468 12.2526 12.627 12.2763 12.602L12.6171 12.264C12.7297 12.152 12.8373 12.067 12.9409 12.012C13.0362 11.9511 13.1468 11.9185 13.2598 11.918C13.3541 11.9194 13.4472 11.9394 13.5338 11.977C13.6325 12.017 13.7361 12.075 13.8477 12.152L15.3345 13.21C15.4422 13.2803 15.5279 13.3798 15.5816 13.497C15.6282 13.6082 15.6525 13.7274 15.6533 13.848V13.848Z" stroke="#242424" stroke-width="1.5" stroke-miterlimit="10"/>
</svg>
