<svg width="22" height="22" viewBox="0 0 22 22" fill="none" xmlns="http://www.w3.org/2000/svg">
<path d="M5.89015 16.4901L8.19015 18.7901M18.7901 13.9301C17.8136 14.9041 16.5897 15.5931 15.2504 15.9227C13.911 16.2522 12.5072 16.2098 11.1901 15.8001L6.48015 20.5001C6.14015 20.8501 5.47015 21.0601 4.99015 20.9901L2.81015 20.6901C2.09015 20.5901 1.42015 19.9101 1.31015 19.1901L1.01015 17.0101C0.940146 16.5301 1.17015 15.8601 1.50015 15.5201L6.20015 10.8201C5.40015 8.22007 6.02015 5.27007 8.08015 3.22007C11.0301 0.270068 15.8201 0.270068 18.7801 3.22007C21.7401 6.17007 21.7401 10.9801 18.7901 13.9301Z" stroke="black" stroke-width="1.5" stroke-miterlimit="10" stroke-linecap="round" stroke-linejoin="round"/>
<path d="M13.5 10C13.8978 10 14.2794 9.84196 14.5607 9.56066C14.842 9.27936 15 8.89782 15 8.5C15 8.10218 14.842 7.72064 14.5607 7.43934C14.2794 7.15804 13.8978 7 13.5 7C13.1022 7 12.7206 7.15804 12.4393 7.43934C12.158 7.72064 12 8.10218 12 8.5C12 8.89782 12.158 9.27936 12.4393 9.56066C12.7206 9.84196 13.1022 10 13.5 10Z" stroke="black" stroke-width="1.5" stroke-linecap="round" stroke-linejoin="round"/>
</svg>
